{"title":"The Smurfs 2 2013 English Portuguese Spanish DVD-R","uid":9287102,"size":6451335168,"categoryP":"video","categoryS":"movies_dvdr","magnet":"?xt=urn:btih:026b163668253647860548d4499f22fcdb569a1b&amp;dn=The+Smurfs+2+2013+English+Portuguese+Spanish+DVD-R&amp;tr=udp%3A%2F%2Ftracker.openbittorrent.com%3A80&amp;tr=udp%3A%2F%2Fopen.demonii.com%3A1337&amp;tr=udp%3A%2F%2Ftracker.coppersurfer.tk%3A6969&amp;tr=udp%3A%2F%2Fexodus.desync.com%3A6969","seeders":2,"leechers":0,"uploader":"RedLegsGreaves","files":-1,"time":1386038413,"description":" &lt;a href=&quot;http://www.imdb.com/title/tt2017020/&quot; rel=&quot;nofollow&quot; target=&quot;_NEW&quot;&gt;http://www.imdb.com/title/tt2017020/&lt;/a&gt;\n \n \nFor Newer Users.\nSimply Drag downloaded folder to your Media Player. This is a ntsc DVD.\nThis is ripped so you would have best quality, menu, bonus/special feature, language options etc.\n\n\nVideo\nID : 224 (0xE0)\nFormat : MPEG Video\nFormat version : Version 2\nFormat profile : Main@Main\nFormat settings, BVOP : Yes\nFormat settings, Matrix : Custom\nFormat settings, GOP : Variable\nDuration : 11mn 16s\nBit rate : 11.2 Mbps\nWidth : 720 pixels\nHeight : 480 pixels\nDisplay aspect ratio : 16:9\nFrame rate : 23.976 fps\nStandard : NTSC\nColor space : YUV\nChroma subsampling : 4:2:0\nBit depth : 8 bits\nScan type : Progressive\nScan order : 2:3 Pulldown\nCompression mode : Lossy\nBits/(Pixel*Frame) : 1.354\nTime code of first frame : 00:59:58;00\nTime code source : Group of pictures header\nStream size : 906 MiB (88%)\n\nAudio\nID : 189 (0xBD)-128 (0x80)\nFormat : AC-3\nFormat/Info : Audio Coding 3\nMode extension : CM (complete main)\nFormat settings, Endianness : Big\nMuxing mode : DVD-Video\nDuration : 11mn 16s\nBit rate mode : Constant\nBit rate : 448 Kbps\nChannel count : 6 channels\nChannel positions : Front: L C R, Side: L R, LFE\nSampling rate : 48.0 KHz\nBit depth : 16 bits\nCompression mode : Lossy\nStream size : 36.1 MiB (4%)\n","torrent":{"xt":"urn:btih:026b163668253647860548d4499f22fcdb569a1b","amp;dn":"The+Smurfs+2+2013+English+Portuguese+Spanish+DVD-R","amp;tr":["udp%3A%2F%2Ftracker.openbittorrent.com%3A80","udp%3A%2F%2Fopen.demonii.com%3A1337","udp%3A%2F%2Ftracker.coppersurfer.tk%3A6969","udp%3A%2F%2Fexodus.desync.com%3A6969"],"infoHash":"026b163668253647860548d4499f22fcdb569a1b","infoHashBuffer":{"type":"Buffer","data":[2,107,22,54,104,37,54,71,134,5,72,212,73,159,34,252,219,86,154,27]},"announce":[],"urlList":[]}}